<svg xmlns="http://www.w3.org/2000/svg" viewBox="0 0 64 64">
  <defs>
    <linearGradient id="earthGradient" x1="0%" y1="0%" x2="100%" y2="100%">
      <stop offset="0%" style="stop-color:#4CAF50;stop-opacity:1" />
      <stop offset="50%" style="stop-color:#2196F3;stop-opacity:1" />
      <stop offset="100%" style="stop-color:#1976D2;stop-opacity:1" />
    </linearGradient>
    <linearGradient id="searchGradient" x1="0%" y1="0%" x2="100%" y2="100%">
      <stop offset="0%" style="stop-color:#FF9800;stop-opacity:1" />
      <stop offset="100%" style="stop-color:#F57C00;stop-opacity:1" />
    </linearGradient>
  </defs>
  
  <!-- Earth circle -->
  <circle cx="28" cy="28" r="24" fill="url(#earthGradient)" stroke="#1565C0" stroke-width="2"/>
  
  <!-- Continents simplified -->
  <path d="M 18 18 Q 22 15 28 16 Q 32 14 36 18 Q 38 22 36 26 Q 32 28 28 26 Q 24 28 20 26 Q 16 22 18 18 Z" 
        fill="#81C784" opacity="0.8"/>
  <path d="M 22 32 Q 26 30 32 32 Q 36 36 34 40 Q 28 42 24 40 Q 20 36 22 32 Z" 
        fill="#81C784" opacity="0.8"/>
  
  <!-- Magnifying glass -->
  <circle cx="46" cy="46" r="10" fill="none" stroke="url(#searchGradient)" stroke-width="4"/>
  <line x1="53" y1="53" x2="60" y2="60" stroke="url(#searchGradient)" stroke-width="4" stroke-linecap="round"/>
  
  <!-- Alpha symbol in magnifying glass -->
  <text x="46" y="50" font-family="Arial, sans-serif" font-size="12" font-weight="bold" 
        fill="#FF9800" text-anchor="middle">α</text>
</svg>
